PathFileType	4	(X/Y/Z)	C:/Git/opensim_tutorial/tutorials/repeated_sprinting/Simulations/PC013/markers.trc	
DataRate	CameraRate	NumFrames	NumMarkers	Units	OrigDataRate	OrigDataStartFrame	OrigNumFrames	
100.00	100.00	4	49	mm	100.00	2901	302	
Frame#	Time	RASIS			LASIS			RPSIS			LPSIS			RTH1			RTH2			RTH3			RTH4			LTH1			LTH2			LTH3			LTH4			RLK			LLK			RSK1			RSK2			RSK3			RSK4			LSK1			LSK2			LSK3			LSK4			RLA			RMA			RHEE			RPCA			RLCA			RSTL			RP1MT			RD1MT			RP5MT			RD5MT			RTOE			RHLX			LLA			LMA			LHEE			LPCA			LLCA			LSTL			LP1MT			LP5MT			LD5MT			LTOE			RAC			LAC			C7			STRN1			STRN2			
		X1	Y1	Z1	X2	Y2	Z2	X3	Y3	Z3	X4	Y4	Z4	X5	Y5	Z5	X6	Y6	Z6	X7	Y7	Z7	X8	Y8	Z8	X9	Y9	Z9	X10	Y10	Z10	X11	Y11	Z11	X12	Y12	Z12	X13	Y13	Z13	X14	Y14	Z14	X15	Y15	Z15	X16	Y16	Z16	X17	Y17	Z17	X18	Y18	Z18	X19	Y19	Z19	X20	Y20	Z20	X21	Y21	Z21	X22	Y22	Z22	X23	Y23	Z23	X24	Y24	Z24	X25	Y25	Z25	X26	Y26	Z26	X27	Y27	Z27	X28	Y28	Z28	X29	Y29	Z29	X30	Y30	Z30	X31	Y31	Z31	X32	Y32	Z32	X33	Y33	Z33	X34	Y34	Z34	X35	Y35	Z35	X36	Y36	Z36	X37	Y37	Z37	X38	Y38	Z38	X39	Y39	Z39	X40	Y40	Z40	X41	Y41	Z41	X42	Y42	Z42	X43	Y43	Z43	X44	Y44	Z44	X45	Y45	Z45	X46	Y46	Z46	X47	Y47	Z47	X48	Y48	Z48	X49	Y49	Z49	

114	1.130	178.26378	154.18184	814.24371				335.94919	62.65900	858.89722	316.20148	-36.15882	860.01654	202.08043	197.55309	569.43701	189.56828	188.73790	510.12003	138.89525	183.50237	489.50272	136.56076	175.18973	553.55414	113.53100	-85.58325	577.26910	85.95206	-57.16084	508.37152	54.33011	-52.74237	557.74640	75.11179	-72.27446	608.92114	138.17763	167.05203	361.51581	9.95426	-10.42119	402.97525	353.43506	138.94806	290.24615	307.07742	164.58823	240.64188	356.04535	157.39256	253.92256	388.24268	149.84280	232.14720	100.98065	-58.58290	219.19528	74.03057	-43.09998	243.94452	76.40013	-55.54350	281.48627	111.38676	-61.28984	300.49582	466.17441	148.02802	164.54883	429.56689	83.33852	122.00731	521.71527	83.47496	164.36420	484.83136	92.46360	180.23904	505.71915	131.93423	154.98886	487.13489	67.54623	132.17470	407.53522	119.91289	84.24568	396.34570	136.50461	42.81925	484.26044	173.92383	106.04185	456.64026	205.38477	78.35280	404.96909	179.50121	82.05070	382.92493	159.42551	20.32026	215.42365	-100.29649	80.93513	188.76646	-22.10241	47.79566	279.54449	-55.93068	60.15541	257.10083	-51.65762	86.07407	256.06631	-97.54362	57.46189	249.60184	-29.41417	44.76309	140.53900	-47.15918	45.71309	198.15900	-132.86693	23.42596	149.48593	-157.00536	21.29005	117.98627	-99.39195	54.04901	169.58774	177.81714	1267.60522	261.05222	-153.23488	1283.79688	229.96768	22.01300	1334.42908	95.88280	-3.39382	1263.44800	79.09877	-13.66865	1208.84656 
115	1.140	173.98447	152.26416	816.88452				330.75320	59.31693	861.07788	309.94174	-39.24298	862.38428	195.79381	198.03125	573.90399	182.54929	190.36749	514.63531	131.70456	186.16154	494.65591	129.86504	177.07156	558.40302	109.39389	-86.39394	578.12115	83.13230	-57.80119	508.76666	50.80047	-53.20304	557.60516	70.68031	-72.73300	609.11945	129.64470	171.24043	366.14420	8.51898	-10.20082	402.21960	343.70856	138.88885	293.34857	297.67139	165.27176	243.95448	346.53183	157.12605	256.98581	378.51352	148.90517	235.04074	100.84468	-58.99679	218.89726	73.73846	-43.52029	243.47566	75.80098	-55.81969	280.99817	110.73923	-61.58470	300.15988	456.02698	145.68372	166.99187	417.76581	81.75601	124.78603	510.02304	79.64223	166.92377	473.49423	89.69777	182.65979	495.19208	128.65010	157.29710	474.99060	64.49425	134.83961	396.98938	119.56156	87.34213	385.61282	135.66154	45.29277	474.66745	170.75513	108.64456	447.85376	202.84380	81.03486	395.45972	178.30832	84.18046	374.63077	158.18578	21.78314	215.33630	-100.80534	81.17671	189.04990	-22.53549	47.94877	279.63806	-56.63159	60.79836	257.26971	-52.54052	86.59575	256.13034	-98.24458	58.05142	249.98238	-29.96256	45.46923	140.78313	-47.45167	45.81911	198.17603	-133.35854	23.24995	149.48912	-157.27968	21.07178	118.12256	-99.65590	54.03921	163.90779	176.22334	1270.07581	252.90323	-156.38515	1285.97937	223.60478	19.81622	1336.64233	89.34029	-4.28576	1265.45239	72.51431	-14.25435	1210.94324 
116	1.150	169.66594	150.52960	819.27972				325.60123	56.18573	863.39417	303.55582	-42.13603	864.58508	189.71432	198.51144	578.15936	175.74577	191.96008	519.11688	124.55668	188.92342	499.60968	123.21339	179.03064	563.28461	105.24887	-87.35799	578.83252	80.20293	-58.51191	509.11066	47.20880	-53.62190	557.43445	66.02576	-73.46815	609.25537	120.89634	175.19572	370.75995	6.72704	-9.98664	401.36728	333.76559	138.78438	296.09204	287.78259	166.16107	246.96349	336.59360	157.06497	259.60596	368.18918	148.26878	237.31357	100.40528	-59.47295	218.67065	73.17841	-43.86428	243.05455	74.94860	-56.13709	280.51578	109.65308	-62.06020	300.11725	445.10455	143.48087	169.02760	404.95959	80.78906	126.87759	497.56079	75.98750	168.20470	461.45059	86.94144	184.19949	483.98450	125.34683	158.91541	461.71729	62.09217	135.90820	384.75781	119.64528	89.98867	373.32083	136.33710	47.98569	464.28506	168.56641	110.57772	438.21704	201.52463	83.79077	384.73172	178.54263	86.49579	364.92963	159.70833	23.82005	215.24132	-101.29399	81.46299	189.24185	-22.96839	48.13894	279.73416	-57.28827	61.45637	257.19757	-53.32175	87.31369	256.05914	-98.85389	58.49355	250.26517	-30.60088	46.08944	141.08165	-47.79571	45.90323	198.18372	-133.73488	22.99767	149.51541	-157.54765	20.84691	118.22141	-99.91759	53.99905	158.20758	174.78606	1272.25415	244.99065	-159.05856	1288.10303	217.34421	17.82637	1338.72534	82.89756	-5.52335	1267.64722	66.05248	-14.86446	1212.87268 
117	1.160	165.29308	149.17604	821.56146				320.16339	53.04134	865.08911	297.19589	-44.75271	866.55219	183.72702	198.97273	582.33588	168.70763	193.53510	523.37610	117.35232	191.53151	504.57947	116.61898	181.08598	568.02234	101.02168	-88.24946	579.51764	77.19733	-59.35707	509.48706	43.48771	-54.09340	557.28052	61.49612	-74.01016	609.45178	111.73215	179.03560	375.55515	4.95615	-10.00618	400.77097	323.52612	138.80194	298.74576	277.35776	167.23978	249.99184	326.15482	157.05563	262.07336	357.26752	147.75696	239.53961	99.72594	-59.94787	218.52600	72.34305	-44.15692	242.67142	73.81881	-56.52459	280.36069	108.35021	-62.57946	300.00821	433.87000	141.58127	171.09070	391.02441	81.10863	127.96366	484.42911	72.99442	167.55791	448.65009	84.35760	184.52591	472.12305	122.73196	160.06194	447.59567	60.65457	136.13260	370.88736	120.80957	92.55597	360.06900	137.20158	49.99813	452.88489	167.34254	112.52377	427.46259	201.48991	87.14710	373.14725	180.57288	89.65069	354.00238	161.35565	25.63514	215.20580	-101.95633	81.76263	189.56027	-23.45546	48.51419	280.00354	-58.13842	62.51610	257.10870	-54.06250	87.91009	256.09048	-99.55363	59.25457	250.40793	-31.16380	46.59101	141.29713	-48.06652	45.98619	198.19586	-134.19968	22.98539	149.52565	-157.85562	20.62560	118.33648	-100.22552	53.96793	152.72241	173.45659	1274.17590	237.14227	-161.33691	1290.05090	211.22635	16.00721	1340.67554	76.44897	-6.26344	1269.39160	59.67081	-15.42636	1214.72485 
